<?xml version="1.0" encoding="UTF-8"?>
<!DOCTYPE svg  PUBLIC '-//W3C//DTD SVG 1.1//EN'  'http://www.w3.org/Graphics/SVG/1.1/DTD/svg11.dtd'>
<svg version="1.1" viewBox="0 0 1249 1249" xmlns="http://www.w3.org/2000/svg">
 <defs>
  <linearGradient id="u" x1="985.14" x2="984.35" y1="657.22" y2="786.99" gradientUnits="userSpaceOnUse">
   <stop stop-color="#459195" offset=".008"/>
   <stop stop-color="#78a9a8" stop-opacity=".49" offset="1"/>
  </linearGradient>
  <linearGradient id="v" x1="408.36" x2="407.7" y1="762.89" y2="874.7" gradientUnits="userSpaceOnUse">
   <stop stop-color="#459195" offset=".008"/>
   <stop stop-color="#78a9a8" stop-opacity=".49" offset="1"/>
  </linearGradient>
  <linearGradient id="ab" x1="174.79" x2="173.92" y1="1044.5" y2="1200" gradientUnits="userSpaceOnUse">
   <stop stop-color="#459195" offset=".008"/>
   <stop stop-color="#78a9a8" stop-opacity=".49" offset="1"/>
  </linearGradient>
  <linearGradient id="w" x1="371.62" x2="370.96" y1="588.02" y2="703.59" gradientUnits="userSpaceOnUse">
   <stop stop-color="#459195" offset=".008"/>
   <stop stop-color="#78a9a8" stop-opacity=".49" offset="1"/>
  </linearGradient>
  <linearGradient id="x" x1="421.94" x2="421.07" y1="520.67" y2="676.19" gradientUnits="userSpaceOnUse">
   <stop stop-color="#459195" offset=".008"/>
   <stop stop-color="#78a9a8" stop-opacity=".49" offset="1"/>
  </linearGradient>
  <linearGradient id="aa" x1="314.79" x2="313.91" y1="811.85" y2="967.37" gradientUnits="userSpaceOnUse">
   <stop stop-color="#459195" offset=".008"/>
   <stop stop-color="#78a9a8" stop-opacity=".49" offset="1"/>
  </linearGradient>
  <linearGradient id="y" x1="502.61" x2="501.74" y1="624.93" y2="780.44" gradientUnits="userSpaceOnUse">
   <stop stop-color="#459195" offset=".008"/>
   <stop stop-color="#78a9a8" stop-opacity=".49" offset="1"/>
  </linearGradient>
  <linearGradient id="z" x1="396.79" x2="396.11" y1="961.65" y2="1076.5" gradientUnits="userSpaceOnUse">
   <stop stop-color="#459195" offset=".008"/>
   <stop stop-color="#78a9a8" stop-opacity=".49" offset="1"/>
  </linearGradient>
  <linearGradient id="t" x1="1046.3" x2="1045.4" y1="611.04" y2="766.55" gradientUnits="userSpaceOnUse">
   <stop stop-color="#459195" offset=".008"/>
   <stop stop-color="#78a9a8" stop-opacity=".49" offset="1"/>
  </linearGradient>
  <linearGradient id="aj" x1="1112" x2="1111.3" y1="677.55" y2="800.68" gradientUnits="userSpaceOnUse">
   <stop stop-color="#459195" offset=".008"/>
   <stop stop-color="#78a9a8" stop-opacity=".49" offset="1"/>
  </linearGradient>
  <linearGradient id="ad" x1="565.13" x2="564.53" y1="806.49" y2="925.56" gradientUnits="userSpaceOnUse">
   <stop stop-color="#459195" offset=".008"/>
   <stop stop-color="#78a9a8" stop-opacity=".49" offset="1"/>
  </linearGradient>
  <linearGradient id="s" x1="916.28" x2="915.41" y1="551.36" y2="706.88" gradientUnits="userSpaceOnUse">
   <stop stop-color="#459195" offset=".008"/>
   <stop stop-color="#78a9a8" stop-opacity=".49" offset="1"/>
  </linearGradient>
  <linearGradient id="ac" x1="470.32" x2="469.45" y1="954.1" y2="1109.6" gradientUnits="userSpaceOnUse">
   <stop stop-color="#459195" offset=".008"/>
   <stop stop-color="#78a9a8" stop-opacity=".49" offset="1"/>
  </linearGradient>
  <linearGradient id="ae" x1="716.27" x2="715.4" y1="935.94" y2="1091.5" gradientUnits="userSpaceOnUse">
   <stop stop-color="#459195" offset=".008"/>
   <stop stop-color="#78a9a8" stop-opacity=".49" offset="1"/>
  </linearGradient>
  <linearGradient id="af" x1="839.4" x2="838.81" y1="797.31" y2="914.86" gradientUnits="userSpaceOnUse">
   <stop stop-color="#459195" offset=".008"/>
   <stop stop-color="#78a9a8" stop-opacity=".49" offset="1"/>
  </linearGradient>
  <linearGradient id="ai" x1="707.92" x2="707.04" y1="697.35" y2="852.87" gradientUnits="userSpaceOnUse">
   <stop stop-color="#459195" offset=".008"/>
   <stop stop-color="#78a9a8" stop-opacity=".49" offset="1"/>
  </linearGradient>
  <linearGradient id="ag" x1="831.36" x2="830.59" y1="621.67" y2="755.05" gradientUnits="userSpaceOnUse">
   <stop stop-color="#459195" offset=".008"/>
   <stop stop-color="#78a9a8" stop-opacity=".49" offset="1"/>
  </linearGradient>
  <linearGradient id="ah" x1="798.61" x2="797.74" y1="426.5" y2="582.02" gradientUnits="userSpaceOnUse">
   <stop stop-color="#459195" offset=".008"/>
   <stop stop-color="#78a9a8" stop-opacity=".49" offset="1"/>
  </linearGradient>
 </defs>
 <path d="m436.89 246.81c33.557-41.853 47.686-71.499 127.2-96.672 25.224-7.985 50.355 18.744 79.477 13.951 12.614-2.076 15.63-13.819 26.493-19.182 19.59-9.672 57.476-10.728 79.477-5.232 146.59 36.622 147.2 82.468 157.19 90.682 12.784 10.519 22.175 29.259 37.09 36.621 11.691 5.773 24.735 6.687 37.089 8.72 33.899 5.578 103.39 35.29 109.5 71.499 1.412 8.369 4.618 22.94 1.766 31.39-12.092 35.816-50.436 65.848-84.776 71.499-5.81 0.956-57.919-0.36-60.049 1.743-12.533 23.795-46.586 63.981-61.815 71.499-28.605 14.122-58.488 17.473-90.074 22.671-51.372 2.351-78.973-1.08-93.607-3.488-33.557-6.394-36.761-8.375-38.855-8.719-7.712-1.269-72.266 28.284-105.97 24.414-75.945-8.719-153.37-94.691-155.42-94.169-44.196 11.221-65.39-0.986-79.52-7.961-23.483-11.594-67.441-31.65-70.603-74.002-7.107-95.154 149.8-109.86 166.02-109.86z" fill="#54bdea"/>
 <path d="m640.99 301.61c273.01-26.5 265.48 116.62 265.7 119.58 1.766 24.415-8.466 69.196-23.696 76.715-28.603 14.121-58.486 17.472-90.074 22.671-51.371 2.349-78.972-1.08-93.606-3.488-33.557-6.395-36.762-8.375-38.855-8.72-7.711-1.269-72.265 28.284-105.97 24.415-75.944-8.72-99.645-96.023-101.7-95.501 0 0-1.766-117.24 188.2-135.68z" fill="#58afd8" fill-opacity=".838"/>
 <path d="m437.19 262.82c33.557-41.853 47.687-71.499 127.2-96.671 25.225-7.985 50.355 18.743 79.477 13.951 12.615-2.076 15.63-13.82 26.492-19.182 19.591-9.673 57.477-10.729 79.477-5.232 146.59 36.621 147.62 81.998 157.19 90.682 12.018 10.908 18.77 28.021 22.615 44.041 12.321 51.331-109.2 150.29-243.43 146.8-301.91-7.845-249.03-174.39-249.03-174.39z" fill="#94e0ff" fill-opacity=".954"/>
 <path d="m940.32 538.17c1.271-3.654 2.587-11.982-4.714-9.062-6.998 2.799-7.704 23.321-8.666 29.333-8 50-34.47 189.47-34 188 14.885-46.667 42.589-189.77 47.333-204z" fill="url(#s)"/>
 <path d="m494.36 940.9c1.271-3.655 2.587-11.983-4.714-9.062-6.998 2.799-7.704 23.321-8.666 29.333-8 50-34.47 189.47-34 188 14.885-46.667 42.589-189.77 47.333-204z" fill="url(#ac)"/>
 <path d="m581.59 796.39c0.869-2.799 1.77-9.175-3.227-6.939-4.79 2.143-5.273 17.856-5.932 22.459-5.475 38.282-23.593 145.07-23.272 143.94 10.189-35.731 29.151-145.3 32.398-156.19z" fill="url(#ad)"/>
 <path d="m740.31 922.75c1.271-3.655 2.587-11.983-4.713-9.063-6.999 2.8-7.705 23.321-8.667 29.334-8 50-34.47 189.47-34 188 14.885-46.667 42.589-189.77 47.333-204z" fill="url(#ae)"/>
 <path d="m855.63 787.33c0.858-2.763 1.746-9.057-3.181-6.85-4.722 2.116-5.199 17.627-5.848 22.172-5.399 37.793-23.261 143.21-22.944 142.1 10.044-35.274 28.74-143.44 31.942-154.2z" fill="url(#af)"/>
 <path d="m852.6 610.36c1.122-3.134 2.285-10.276-4.164-7.772-6.182 2.401-6.807 20.001-7.656 25.157-7.068 42.881-30.451 162.5-30.036 161.23 13.149-40.022 37.623-162.75 41.814-174.96z" fill="url(#ag)"/>
 <path d="m822.66 413.31c1.271-3.654 2.586-11.982-4.714-9.062-6.998 2.799-7.704 23.321-8.666 29.333-8 50-34.47 189.47-34 188 14.884-46.667 42.589-189.77 47.333-204z" fill="url(#ah)"/>
 <path d="m731.96 684.16c1.271-3.655 2.587-11.983-4.713-9.062-6.998 2.799-7.705 23.321-8.667 29.333-8 50-34.469 189.47-34 188 14.885-46.667 42.59-189.77 47.334-204z" fill="url(#ai)"/>
 <path d="m1131 669.12c1.271-3.655 2.587-11.983-4.713-9.062-6.998 2.799-7.705 23.321-8.667 29.333-8 50-24.775 144.08-24.306 142.61 14.885-46.667 32.895-144.38 37.639-158.61z" fill="url(#aj)"/>
 <path d="m1070.3 597.84c1.271-3.655 2.587-11.983-4.713-9.063-6.999 2.799-7.705 23.321-8.667 29.333-8 50-34.47 189.47-34 188 14.885-46.666 42.589-189.77 47.333-204z" fill="url(#t)"/>
 <path d="m1006.8 647.81c1.271-3.654 2.587-11.982-4.713-9.062-6.998 2.799-7.705 23.321-8.667 29.333-8 50-29.923 153.39-29.454 151.92 14.885-46.667 38.044-153.69 42.788-167.92z" fill="url(#u)"/>
 <path d="m426.71 753.41c0.97-2.628 1.974-8.616-3.596-6.516-5.341 2.012-5.88 16.767-6.614 21.09-6.105 35.949-26.304 136.23-25.946 135.17 11.359-33.553 32.5-136.44 36.121-146.67z" fill="url(#v)"/>
 <path d="m389.8 578.22c0.961-2.716 1.956-8.905-3.563-6.735-5.291 2.08-5.825 17.331-6.552 21.799-6.048 37.156-26.059 140.8-25.704 139.71 11.253-34.679 32.197-141.02 35.784-151.6z" fill="url(#w)"/>
 <path d="m445.98 507.48c1.271-3.654 2.587-11.982-4.714-9.062-6.998 2.799-7.704 23.321-8.666 29.333-8 50-34.47 189.47-34 188 14.885-46.666 42.589-189.77 47.333-204z" fill="url(#x)"/>
 <path d="m526.66 611.73c1.271-3.655 2.586-11.982-4.714-9.062-6.998 2.799-7.704 23.321-8.666 29.333-8 50-34.47 189.47-34 188 14.884-46.667 42.589-189.77 47.333-204z" fill="url(#y)"/>
 <path d="m415.4 951.91c0.983-2.699 2.002-8.849-3.65-6.692-5.418 2.067-5.965 17.221-6.71 21.661-6.194 36.922-26.688 139.91-26.324 138.83 11.524-34.46 32.974-140.13 36.647-150.64z" fill="url(#z)"/>
 <path d="m338.83 798.66c1.27-3.655 2.586-11.982-4.714-9.062-6.998 2.799-7.705 23.321-8.667 29.333-8 50-34.469 189.47-34 188 14.885-46.667 42.59-189.77 47.334-204z" fill="url(#aa)"/>
 <path d="m198.83 1031.3c1.271-3.655 2.587-11.983-4.713-9.063-6.998 2.8-7.705 23.321-8.667 29.334-8 50-34.469 189.47-34 188 14.885-46.667 42.59-189.77 47.334-204z" fill="url(#ab)"/>
 <g fill="#d2f9ff">
  <path d="m988.7 311.74c1.271-2.863 2.587-9.387-4.713-7.099-6.998 2.193-7.705 18.269-8.667 22.979-8 39.17-34.47 148.43-34 147.28 14.885-36.559 42.589-148.66 47.333-159.81z"/>
  <path d="m647.54 337.04c1.469-3.773 2.99-12.37-5.448-9.356-8.09 2.89-8.907 24.076-10.019 30.283-9.248 51.618-39.847 195.6-39.304 194.08 17.207-48.177 49.233-195.91 54.717-210.6z"/>
  <path d="m377.72 334.64c1.271-2.863 2.587-9.387-4.713-7.099-6.999 2.192-7.705 18.269-8.667 22.979-8 39.17-34.47 148.43-34 147.28 14.885-36.559 42.589-148.66 47.333-159.81z"/>
  <path d="m512.63 348.11c0.87-2.622 1.829-8.614-2.945-6.59-4.576 1.94-5.292 16.734-5.991 21.06-5.818 35.974-24.742 136.27-24.418 135.22 10.243-33.492 30.013-136.4 33.27-146.61z"/>
  <path d="m915.77 294.06c0.871-2.622 1.829-8.614-2.945-6.59-4.576 1.94-5.292 16.734-5.991 21.06-5.818 35.974-24.741 136.27-24.418 135.22 10.243-33.492 30.013-136.4 33.27-146.61z"/>
 </g>
</svg>
